<?xml version="1.0" encoding="utf-8"?>
<svg width="36px" height="50px" viewBox="0 0 36 50" version="1.1" xmlns:xlink="http://www.w3.org/1999/xlink" xmlns="http://www.w3.org/2000/svg">
  <path d="M35 5L25 5L25 3C25 1.34766 23.6523 0 22 0L14 0C12.3477 0 11 1.34766 11 3L11 5L1 5C0.449219 5 0 5.44922 0 6C0 6.55078 0.449219 7 1 7L2.08594 7L5.69531 47.5156C5.82031 48.9063 7.00391 50 8.39063 50L27.6055 50C28.9922 50 30.1758 48.9063 30.3008 47.5156L33.9141 7L35 7C35.5547 7 36 6.55078 36 6C36 5.44922 35.5547 5 35 5L35 5ZM13 44C13 44.5547 12.5508 45 12 45C11.4492 45 11 44.5547 11 44L11 11C11 10.4492 11.4492 10 12 10C12.5508 10 13 10.4492 13 11L13 44ZM13 3C13 2.44922 13.4492 2 14 2L22 2C22.5508 2 23 2.44922 23 3L23 5L13 5L13 3ZM19 44C19 44.5547 18.5508 45 18 45C17.4492 45 17 44.5547 17 44L17 11C17 10.4492 17.4492 10 18 10C18.5508 10 19 10.4492 19 11L19 44ZM25 44C25 44.5547 24.5547 45 24 45C23.4453 45 23 44.5547 23 44L23 11C23 10.4492 23.4453 10 24 10C24.5547 10 25 10.4492 25 11L25 44Z" id="Shape" fill="#FFFFFF" fill-rule="evenodd" stroke="none" />
</svg>